<?xml version="1.0" encoding="UTF-8"?>
<svg version="1.1" viewBox="0 0 394.11 241.97" xmlns="http://www.w3.org/2000/svg">
 <g transform="translate(-155.48 -600.29)">
  <path d="m430.93 610.29c-110.68 0-201.62 75.23-201.62 164.28 0 19.727 70.049 37.607 78.035 55.078 0 0 166.34-12.122 201.69-41.416 14.046-3.3288 27.728-53.803 27.527-76.291-0.37251-41.789-42.428-94.578-105.63-101.65z" fill="#ff0"/>
  <path transform="matrix(.78392 .54706 -.38928 1.1016 168.46 295.42)" d="m242.94 295.19c0 8.2289-5.0879 14.9-11.364 14.9s-11.364-6.6708-11.364-14.9c0-8.2289 5.0879-14.9 11.364-14.9s11.364 6.6708 11.364 14.9z" fill="#fff"/>
  <path transform="translate(0 452.36)" d="m295.88 200.72c-42.764 19.915-60.805 40.545-67.75 82.188 4.6636 2.1465 7.875 6.6204 7.875 11.781 0 6.062-4.4243 11.144-10.438 12.656-0.51676 18.852 3.6657 42.867 29.062 61.438 29.548 21.607 102.31 5.0625 102.31 5.0625 1.795-11.829 2.25-31.748 2.25-44.406 0-66.87-25.441-103.59-63.312-128.72z"/>
  <path d="m292.8 777c-3.0619-7.7513-5.3122 4.0477-24.592 4.5097-19.28 0.4619-23.392-15.018-27.023-6.4953-4.251 9.9756 16.548 17.556 27.391 17.549 9.5977-0.01 27.751-6.6367 24.225-15.563z" fill="#fff" stroke="#fff" stroke-width="1px"/>
  <path transform="translate(32.434 329.64)" d="m303.05 425.06c0 7.2526-6.3316 13.132-14.142 13.132-7.8105 0-14.142-5.8794-14.142-13.132s6.3316-13.132 14.142-13.132c7.8105 0 14.142 5.8794 14.142 13.132z" fill="#fff"/>
  <path d="m220.07 624.14c-20.639 0.1481-61.986 13.938-52.763 32.402 8.4872 16.992 11.569-18.641 53.004-20.911 23.207-0.9768 43.97 10.506 59.656 31.344l8.3929-2.2366c-4.0024-25.664-41.809-40.788-68.29-40.598z" stroke="#000" stroke-width="1px"/>
  <path d="m229.85 647.6c-4.2157 0.028-11.97 2.0346-15.915 3.3348-23.426 6.8645-35.824 51.604-28.031 61.375 5 5.3571 5.8997 0.6333 8.2054-0.8661 15.984-10.395 9.7568-44.053 28.558-49.562 16.9-5.5702 37.964 2.2634 48.625 8.8438l6.6339-2.4554c4.0497-2.2741-25.311-20.821-48.076-20.67z" stroke="#000" stroke-width="1px"/>
  <path d="m414.45 698.31c-12.449-33.399-58.933-82.14-84.647-67.518-27.323 15.536 18.566 5.3797 56.438 79.854 16.684 35.245 8.848 74.673-6.8066 94.443-20.002 26.227 6.538 18.34 11.539 13.466 43.934-32.289 37.771-81.896 23.477-120.25z" stroke="#000" stroke-width="1.7636px"/>
  <path d="m486.62 708.5c6.062 36.989-11.197 91.462-47.142 102.09-30.907 9.1373 29.23-39.763 14.528-97.924-4.2865-27.516-17.953-66.132-59.732-84.448-30.247-10.54-4.6708-16.927 2.1566-15.087 54.651-3.1162 83.113 52.192 90.189 95.37z" stroke="#000" stroke-width="1.786px"/>
  <path d="m455.73 616.35c37.713 12.624 66.156 75.418 61.464 105.47-2.2004 14.095-7.6212 34.168-19.1 50.236-5.6773 7.9465-20.025 23.927-16.882 27.124 3.1434 3.1969 16.102-0.25469 31.786-13.103 16.902-14.942 26.301-49.072 26.101-71.841-0.33743-38.328-29.891-83.971-83.369-97.889z" stroke="#000" stroke-width="1.0062"/>
  <path d="m371.13 707.03s133.08-60.683 129.33-6.7947c-55.998 127.72-129.33 6.7947-129.33 6.7947z" fill="#fff" stroke="#000" stroke-width="5"/>
  <text transform="translate(0 452.36)" x="655.71429" y="382.85715" fill="#000000" font-family="Bitstream Vera Sans" font-size="40px">
   <tspan x="655.71429" y="382.85715"/>
  </text>
 </g>
</svg>
