<?xml version="1.0" encoding="UTF-8" standalone="no"?>
<svg
    xmlns:rdf="http://www.w3.org/1999/02/22-rdf-syntax-ns#"
    xmlns="http://www.w3.org/2000/svg"
    xmlns:cc="http://web.resource.org/cc/"
    xmlns:dc="http://purl.org/dc/elements/1.1/"
    xmlns:svg="http://www.w3.org/2000/svg"
    xmlns:inkscape="http://www.inkscape.org/namespaces/inkscape"
    xmlns:sodipodi="http://sodipodi.sourceforge.net/DTD/sodipodi-0.dtd"
    xmlns:ns1="http://sozi.baierouge.fr"
    xmlns:xlink="http://www.w3.org/1999/xlink"
    version="1.1"
    viewBox="0 0 1000 700"
  >
<script type="application/x-javascript"><![CDATA[
    var DrawPaths = new function()
    {
      var l;
      var increment;
      var len;
      var idx=0;
      var paths;
      var node;
      var style;
  
      window.addEventListener("load", init);
  
      function init() { setTimeout(initialize,1000); } function initialize()
      {
        paths = document.getElementsByTagName("path");
        for(var i=0;i<paths.length;i++)
        {
          style = paths[i].getAttribute("style");
          paths[i].setAttribute("style","display:none;"+style);
        }
        getPath();
      }
  
      function getPath()
      {
        if(idx>paths.length) return;
  
        node = paths[idx];
        style = node.getAttribute("style");
        len = node.getTotalLength();
  
        increment=len/100;
        if(increment<10) increment = 10;
        l = increment;
  
        setTimeout(drawPath,500);
      }
  
      function drawPath()
      {
        node.setAttribute("style","fill:none;stroke:magenta;stroke-width:1px;stroke-dasharray:"+l+","+len);
        l+=increment;
        if(l<len) setTimeout(drawPath,75);
        else
        {
          style = style.replace("display:none;","");
          node.setAttribute("style",style);
          idx++;
          setTimeout(getPath,50);
        }
      }
    }();
  
  ]]>
  </script> 
  <path
      d="m0 0h1e3v700h-1e3v-700z"
      fill="#ffffff"
  />
  <path
      d="m624.94 44.2c1.63 0.19 3.36 0.13 4.88 0.89 4.6 2.16 9.37 3.94 13.98 6.1 3.73 1.55 7.45 3.17 11.04 5.04 6.23 2.49 11.98 5.99 17.98 8.97 3.79 1.99 7.43 4.25 11.05 6.52 3.43 2.41 6.29 5.5 9.12 8.56l0.65 0.1-0.11 0.81c1.1 0.81 2.15 1.68 3.31 2.43 3.73-0.08 7.46-0.51 11.2-0.3 4.27 0.03 8.64 1.31 12.83-0.08 35.94-9.03 74.67-6.27 109 7.64 2.07-2.27 3.91-4.76 5.8-7.19 3.36-3.71 6.92-7.24 10.6-10.64l0.15-0.25c9.81-6.27 20.11-11.81 30.73-16.57 3.58-1.86 7.27-3.47 11-5.01 4.6-2.17 9.39-3.95 14-6.12 1.52-0.76 3.24-0.71 4.9-0.9 3.9 18.11 6.97 36.38 9.94 54.66 1.22 7.34 0.71 14.82 0.58 22.23-1.69 12.17-4.48 24.23-9.28 35.58-1.02 1.65-1.49 3.64-0.21 5.32 21.1 40.59 19.57 91.8-3.84 131.1-0.68 1.08-1.35 2.16-1.99 3.25-2.05 3.29-4.31 6.42-6.52 9.6-7.01 9.04-14.5 17.85-23.5 24.98-9.78 8.4-20.74 15.3-32.07 21.39-4.19 1.87-8.3 3.9-12.57 5.56 0.44 22.68-4.17 45.4-13.28 66.16-1.2 2.59-2.34 5.21-3.54 7.8-6.53 13.24-14.77 25.57-24.02 37.05-1.83 2.24-3.79 4.38-5.58 6.65l-0.25 0.23c-1.56 1.79-3.15 3.54-4.79 5.25-1.76 1.68-3.47 3.44-5.11 5.25l-0.64 0.16 0.1 0.68-1.38 1.38-0.77-0.15 0.16 0.77c-0.34 0.35-1.03 1.06-1.38 1.41l-0.68-0.15-0.15 0.69c-2.56 2.23-5.01 4.57-7.37 7-0.5 0.26-1.5 0.8-2.01 1.06-0.91 1.13-2.1 2.23-1.87 3.84-0.11 36.19 0.05 72.4-0.07 108.59-0.36 0.35-1.07 1.06-1.42 1.42-32.18 0.1-64.36 0.01-96.54 0.04-0.04 17.18 0.07 34.36-0.05 51.54-0.35 0.36-1.06 1.06-1.41 1.42-39.02 0.07-78.06 0.07-117.08 0-0.35-0.36-1.06-1.07-1.42-1.42-0.1-25.46 0-50.93-0.04-76.39-40.82 4.64-82.16 4.78-123 0.34-0.05 7.68 0.09 15.37-0.05 23.05-0.35 0.36-1.06 1.06-1.42 1.42-32.17 0.1-64.35 0.01-96.53 0.04-0.03 17.18 0.06 34.36-0.04 51.54-0.36 0.35-1.07 1.06-1.42 1.42-38.51 0.11-77.03-0.02-115.54 0.06-1.34 0.33-2.93-0.71-3-2.07-0.02-52.7 0.03-105.4-0.02-158.1 0.39-3.13-3.01-4.37-4.87-6.19-0.71-0.57-1.41-1.13-2.1-1.7-0.65-0.65-1.3-1.3-1.95-1.93-1.45-1.34-2.87-2.7-4.39-3.95l-0.1-0.71-0.73 0.17c-0.35-0.34-1.06-1.02-1.41-1.37l0.2-0.79-1.24 0.23 0.23-1.22-1.22 0.21 0.22-1.22-0.79 0.17c-0.34-0.35-1.03-1.04-1.37-1.39l0.16-0.72-0.66-0.17c-1.37-1.44-2.77-2.85-4.2-4.23l-0.23-0.57-0.59-0.19c-1.63-1.85-3.23-3.71-4.85-5.54l-0.33-0.17c-0.24-0.35-0.72-1.05-0.96-1.4-1.76-1.99-3.49-3.99-5.07-6.11-0.83-1.06-1.67-2.09-2.5-3.13-5.29-6.89-10.07-14.14-14.56-21.56-0.8-1.51-1.6-3.01-2.38-4.52-1.2-2.25-2.39-4.51-3.59-6.75-5.54-12.05-10.35-24.53-12.96-37.58-6.51-29.82-3.76-61.53 7.47-89.89-0.75-0.78-1.5-1.53-2.27-2.27-3.17-2.25-5.95-5.02-8.25-8.14-1.1-1.51-2.26-2.96-3.39-4.45-3.02-3.31-6.2-6.59-8.11-10.71-0.34-0.67-0.67-1.34-1-2-1.12-1.7-2.24-3.39-3.36-5.07-1.24-2.74-2.49-5.48-3.98-8.09-0.75-1.61-1.45-3.24-2.15-4.87-0.11-0.51-0.32-1.53-0.43-2.04-1.05-2.58-1.7-5.3-2.19-8.03-0.65-2.61-0.8-5.3-0.97-7.97-1.1-8.27 3.02-17.47-2.08-25.07-0.3-1-0.58-2-0.84-3-0.44-1.3-0.86-2.59-1.32-3.88-0.54-2.09-1.17-4.15-1.92-6.18-0.68-6.77-0.39-13.61-0.25-20.41l0.54 0.14c0.11-1.9 0.25-3.79 0.42-5.68 0.56-1.58 1.06-3.18 1.6-4.77 0.75-4.08 2.8-7.75 5.18-11.09l-0.01-0.6 0.67-0.1c4.03-5.18 8.18-10.99 15.02-12.47 1.86-0.2 3.72-0.31 5.58-0.39 0.47 3.54-2.7 5.45-5.04 7.42-0.63 0.68-1.25 1.37-1.87 2.07-6.35 6.86-7.45 16.39-9.64 25.07-1.45 5.47-0.46 11.15 0.67 16.58 1.45-2.04 3.05-4.03 4.03-6.35 2.22-2.94 5.03-5.41 7.93-7.68 1.75-0.81 3.5-1.65 5.26-2.44 1.28-0.51 2.56-1 3.84-1.52 0.53-0.12 1.59-0.36 2.12-0.48 4.88-1.35 10.02-0.91 14.94-0.05 1.34 0.28 2.68 0.56 4.01 0.88 0.99 0.43 1.98 0.85 2.97 1.28 1.1 0.4 2.19 0.83 3.3 1.24 2.45 2.01 5.02 3.92 7.13 6.31 1.3 1.8 2.68 3.54 4.05 5.3 0.05 0.21 0.13 0.62 0.17 0.83 0.92 1.31 1.82 2.64 2.72 3.97 0.88 1.89 1.72 3.8 2.48 5.75l0.74-0.35c0.2 6.65 1.53 13.81-2.27 19.76-0.25 0.49-0.76 1.48-1.01 1.97-0.86 1.35-1.74 2.69-2.64 4.02-0.05 0.2-0.14 0.61-0.19 0.81-1.37 1.76-2.75 3.5-4.06 5.29-2.59 2.92-5.67 5.4-9.12 7.23-1.47 0.46-2.91 0.98-4.37 1.46-1.92 0.52-3.88 0.88-5.8 1.38-5.09 0.79-10.27 0.51-15.22-0.92-1.26-0.5-2.54-0.97-3.8-1.45-4.1-1.63-7.54-4.54-11.73-5.98 0.07 2.09 0.07 4.24 0.78 6.25 0.71 4.8 2.06 9.45 3.49 14.08 2.19 3.34 4.24 6.76 5.81 10.44 3.46 5.79 8.12 10.75 11.81 16.39 2.26 2.32 4.54 4.62 7.01 6.72 0.21-0.41 0.64-1.25 0.85-1.66 2.1-3.68 3.96-7.48 6.04-11.16 4.32-7.21 9.06-14.17 14.11-20.9 1.08-1.3 2.18-2.58 3.29-3.84l-0.04-0.47c1.36-1.51 2.72-3.02 4.11-4.5l-0.06-0.43c0.29-0.28 0.85-0.83 1.14-1.11 1.77-1.98 3.55-3.95 5.29-5.96l0.39-0.14c0.86-0.98 1.73-1.95 2.59-2.92l0.72-0.07-0.16-1.17 1.22 0.22-0.26-1.23 0.8 0.18c0.33-0.36 1.01-1.07 1.34-1.42l-0.18-0.79 1.22 0.22-0.21-1.22 1.22 0.21-0.23-1.23 0.78 0.19c0.35-0.35 1.06-1.05 1.41-1.39l-0.2-0.77 1.18 0.2 0.13-0.68c3.14-2.67 5.94-5.72 9.2-8.25 1.75-1.43 3.46-2.9 5.18-4.35 1.95-1.56 3.86-3.17 5.86-4.66 1.06-0.77 2.1-1.57 3.16-2.35 1.34-1 2.67-2.02 4.01-3.02 1.61-1.2 3.2-2.43 4.78-3.67l0.44-0.07c4.34-3.12 8.79-6.08 13.34-8.87 0.37-0.21 1.1-0.64 1.47-0.86 3.26-2.05 6.53-4.08 9.86-6.02 1.01-0.54 2.02-1.09 3.03-1.63 1.33-0.79 2.67-1.56 4.01-2.33 1.96-1.03 3.93-2.05 5.91-3.05 2-0.99 3.99-1.99 5.99-2.99 1.32-0.71 2.65-1.41 3.98-2.11 0.5-0.24 1.52-0.71 2.02-0.94 0.51-0.3 1.54-0.9 2.05-1.2 0.25-0.02 0.77-0.06 1.02-0.08 1.99-1.01 4-2 6-3.01 0.25 0 0.77-0.01 1.03-0.02 0.97-0.66 1.94-1.32 2.92-1.97 0.26 0.02 0.78 0.07 1.04 0.09 1.35-0.71 2.71-1.4 4.06-2.11 0.22 0.02 0.67 0.07 0.89 0.09 1.35-0.72 2.71-1.41 4.06-2.13 0.33 0.05 1.01 0.16 1.34 0.21l0.3-1.21c0.31 0.03 0.93 0.08 1.25 0.11 1.18-0.51 2.37-0.99 3.58-1.44l0.04-0.2c1.21-0.42 2.42-0.86 3.62-1.34 0.18-0.02 0.55-0.07 0.74-0.09 1.19-0.48 2.4-0.93 3.63-1.35l-0.02-0.54c0.75-0.05 2.25-0.14 3-0.19l-0.08-0.86 3.08-0.12-0.06-0.89c0.76-0.02 2.3-0.07 3.06-0.09l-0.03-0.89c0.76-0.03 2.27-0.09 3.03-0.12l-0.03-0.89c0.76-0.03 2.29-0.09 3.05-0.12l-0.03-0.86c0.76-0.03 2.28-0.1 3.04-0.13l-0.06-0.74c0.65-0.09 1.95-0.28 2.61-0.37 1.43-0.51 2.9-0.88 4.38-1.23v-0.47c0.64-0.08 1.94-0.24 2.59-0.32 2.3-0.86 4.66-1.57 7.03-2.27 1.32-0.32 2.65-0.61 3.99-0.91 1.31-0.39 2.64-0.72 3.96-1.08 1.33-0.35 2.67-0.66 4.01-0.98 2.65-0.74 5.32-1.44 8.02-2.03 46.12-10.44 93.66-14.21 140.88-12.22 31.28 1.32 62.46 5.31 92.99 12.25 2.7 0.56 5.38 1.28 8.04 2.03 1.33 0.32 2.68 0.62 4.01 0.98 1.31 0.35 2.64 0.69 3.96 1.08 1.32 0.29 2.67 0.59 4 0.93 2.34 0.66 4.68 1.37 6.98 2.19 1.19 0.22 2.39 0.44 3.6 0.67-3.61-9.59-5.57-19.68-7.07-29.78-0.14-7.42-0.65-14.91 0.58-22.27 2.96-18.28 6.04-36.56 9.93-54.67z"
      fill="#000000"
  />
  <path
      d="m629.48 58.2c0.13-1.85 1.77-2.81 3.13-3.76 3.55 1.31 7.01 2.84 10.48 4.33 3 1.31 5.99 2.63 8.99 3.94 3.26 1.5 6.55 2.95 9.79 4.49 0.51 0.25 1.51 0.75 2.01 0.99 3.1 1.47 6.15 3.01 9.2 4.59 2.52 1.43 5.13 2.72 7.65 4.17 3.72 2.05 6.42 5.5 10.2 7.48-5.32 1.53-10.42 3.7-15.65 5.49-2.25-2.8-4.59-5.55-7.05-8.17-3.75-3.81-9.14-5.01-13.94-6.93-5.18-1.8-10.22-4.35-15.79-4.61-1.48 3.75-1.13 7.83-1.3 11.78-0.78 3.95-0.74 8.01-1.41 11.98-0.77 8.34-2.64 16.74-1.37 25.13 0.85 5.01 1.45 10.11 3.22 14.9-3.89 5.43-8.43 10.41-11.76 16.24-0.57-2.09-1.16-4.15-1.75-6.23-0.77-2.66-1.46-5.34-2.05-8.05-0.39-1.99-0.66-4.01-0.99-6.01-0.73-3.58-0.63-7.25-1.11-10.86-1.06-7.72 1.05-15.36 2.17-22.95 2.14-12.7 4.75-25.33 7.33-37.94z"
      fill="#ffb79b"
  />
  <path
      d="m895.91 55.61c1.73-0.36 3.47-0.7 5.23-1.02 1.1 2.67 1.9 5.45 2.39 8.3 2.08 11.06 4.54 22.05 6.3 33.17 2.84 13.1 2.67 26.78 0.08 39.9-0.6 2.7-1.28 5.38-1.98 8.06-1.01 3.22-2.12 6.41-2.93 9.68-0.62-0.07-1.23-0.15-1.82-0.22-2.75-5.31-6.56-9.92-9.97-14.78-2.23-2.94 0.53-6.28 1.32-9.22 1.53-7.56 3.2-15.28 2.2-23.04-0.95-8.49-1.9-16.98-2.93-25.46-0.17-3.9 0.15-7.92-1.23-11.65-5.82-0.8-10.89 2.46-16.1 4.42-4.3 1.88-9.06 2.99-12.72 6.08-6.07 6-11.56 12.74-14.81 20.73-4.87-2.68-9.68-5.49-14.83-7.61 6.75-8.94 15.73-16.03 25.88-20.72 2.68-1.4 5.39-2.74 8.12-4.04 0.51-0.24 1.51-0.74 2.01-0.99 3.25-1.54 6.53-2.99 9.8-4.49 3-1.31 5.99-2.64 9-3.92 2.35-0.99 4.69-2.04 6.99-3.18z"
      fill="#ffb79b"
  />
  <path
      d="m870.2 80.93c5.7-2.05 11.27-4.54 17.24-5.73 1.58 4.8 1.94 9.87 2.46 14.86 1.43 9.56 2.35 19.25 1.58 28.91 0.01 4.25-1.09 8.38-2.52 12.35-6.81-4.94-12.56-11.09-19.17-16.27-5.25-4.55-11.19-8.16-16.89-12.08 2.03-5.23 4.75-10.27 8.59-14.4 2.65-2.78 4.86-6.41 8.71-7.64z"
      fill="#ffa5c5"
  />
  <path
      d="m643.57 76.2c5.4 1.06 10.47 3.25 15.62 5.13 5.64 1.47 8.97 6.68 12.38 10.97-9.75 6.15-18.31 14.51-23.33 24.99-2.32 4.31-2.96 9.75-7.24 12.73-2.91-12.8-1.79-26.1 0.11-38.96 0.53-4.99 0.83-10.08 2.46-14.86z"
      fill="#ffa5c5"
  />
  <path
      d="m733.25 89.65c40.88-7.71 84.83 0.27 119.56 23.44 24.77 16.21 44.84 40.09 54.82 68.11 8.01 21.84 9.64 45.92 4.86 68.67-4 18.46-11.97 36.11-23.41 51.17-20.99 27.93-52.37 47.4-86.21 55.56-38.16 9.1-79.81 4.71-114.52-13.89-29.87-15.48-54.83-41.3-66.97-72.91-9.1-22.96-11.09-48.65-5.75-72.75 4.41-20.02 13.79-38.79 26.65-54.71-0.12 13.85 5.25 27.61 14.46 37.92 9.82 11.04 23.57 18.54 38.21 20.66 6.48 1.07 13.08 0.88 19.61 0.36-11.14 9.54-16.89 24.99-14.92 39.52 1.33 10.7 6.94 20.51 14.51 28.05 5.34 4.9 11.25 9.21 17.71 12.51 23.35 11.22 51.9 11.21 75.23-0.04 11.19-5.9 21.59-14.31 27.44-25.74 5.93-11.09 6.64-24.73 2.16-36.45-4.1-10.44-11.83-19.26-21.24-25.25 2.15-0.6 4.32-1.24 6.48-1.88 10.54-4.26 19.32-12.53 23.86-23 0.5-1.3 1-2.61 1.54-3.9 0.1-0.53 0.29-1.59 0.39-2.12 0.53-1.99 0.98-4.01 1.55-5.99 0.6-6.76-0.33-13.52-2.42-19.95-4.49-11.76-14.02-21.68-26.06-25.69-19.9-7.13-44.43 3.3-52.44 22.98-2.48-14.4-10.27-27.79-21.77-36.84-4.08-3.16-8.33-6.34-13.33-7.84z"
      fill="#ffb79b"
  />
  <path
      d="m658.24 112.27c9.54-12.27 24.28-20.12 39.65-21.91 15.75-2.03 32.38 1.91 45.1 11.54 11.59 8.41 19.61 21.72 20.94 36.05 1.23 10.41-1.93 20.74-6.58 29.94 0.84-5.38-0.26-11.16-3.7-15.48-3.66-4.72-9.72-7.47-15.69-7.11-7.04 0.3-13.74 4.94-16.28 11.55-3.03 7.01-1.1 15.79 4.56 20.91 4.9 4.65 12.33 6.1 18.73 4.06-8.49 6.35-18.34 11.02-28.9 12.53-16.14 2.57-33.44-1.06-46.65-10.86-9.87-7.07-17.44-17.57-20.23-29.45-3.81-14.33-0.04-30.18 9.05-41.77z"
      fill="#ffffff"
  />
  <path
      d="m787.42 120.25c11.53-7.13 26.97-7.23 38.6-0.26 6.67 3.85 11.99 9.89 15.07 16.94 7.42 15.82 1.01 36.23-13.82 45.31-11.38 7.45-26.88 7.9-38.69 1.18-4.7-2.49-8.51-6.27-11.97-10.25 3.16 1.76 6.77 3.15 10.47 2.41 5.98-0.74 11.23-6.41 10.51-12.6-0.53-6.58-7.27-11.44-13.68-10.69-7.04 0.16-13.12 7.18-11.47 14.22-1.98-6.98-3.79-14.29-2.13-21.55 1.82-10.17 8.22-19.43 17.11-24.71z"
      fill="#ffffff"
  />
  <path
      d="m401.02 144.86c54.76-7.59 110.7-6.53 165.15 3.01 18.06 3.31 36.01 7.33 53.55 12.78-18.48 34.85-20.57 77.79-5.71 114.32 6.93 17.6 17.99 33.34 31 46.97 12.23 12.26 26.6 22.23 41.87 30.31 40.35 20.13 88.6 23.07 131.36 9.08-0.25 22.07-5.4 44-14.9 63.92-16.63 35.1-44.76 63.53-76.32 85.61-32.1 22.2-68.03 38.56-105.3 49.93-49.04 15.01-100.46 21.56-151.67 21.38-49.88-0.56-99.85-7.45-147.48-22.49-36.15-11.36-70.97-27.48-102.15-49.12-17.61-12.41-34.02-26.62-48.09-42.97-16.62-19.43-30-41.98-36.96-66.7-7.4-25.59-7.51-53.23-0.25-78.86 6.81-24.87 20.18-47.57 36.79-67.14 27.33-31.81 62.87-55.61 100.67-73.26 40.57-18.81 84.19-30.69 128.44-36.77z"
      fill="#ffb79b"
  />
  <path
      d="m101.15 181.05c2.19-8.68 3.29-18.21 9.64-25.07l0.6 0.33c-2.44 4.08-5.27 8.07-6.36 12.78-1.83 8.1-5.66 16.54-2.35 24.81 1.05-0.96 2.12-1.9 3.21-2.82l-0.04 0.2c-0.98 2.32-2.58 4.31-4.03 6.35-1.13-5.43-2.12-11.11-0.67-16.58z"
      fill="#898989"
  />
  <path
      d="m765.4 160.79c1.7 7.36 5.4 14.19 10.52 19.74-7.89-0.62-15.81-0.01-23.6 1.22 6.21-5.55 10.66-13.03 13.08-20.96z"
      fill="#ffb79b"
  />
  <path
      d="m761.2 188.2c7.3-0.63 14.69-0.47 21.94 0.69 4.52 0.67 8.57 2.9 12.94 4.13 11.32 2.43 21.31 9.49 28.56 18.38 6.95 8.7 10.29 20.57 7.58 31.51-2.43 11.18-10.28 20.45-19.58 26.74-16.75 11.22-37.98 14.64-57.68 11.31-14.72-2.68-29.31-9.17-39.28-20.62-7.69-8.66-11.75-20.89-9.22-32.36 2.16-11.33 9.94-20.81 19.23-27.27 10.53-7.07 22.89-11.33 35.51-12.51z"
      fill="#ffa5c5"
  />
  <path
      d="m119.28 194.54c5.98-5.22 14.67-4.96 21.84-2.75 5.66 2.26 9.22 7.68 12.79 12.36 2.76 4.17 2.88 9.66 1.51 14.34-3.23 5.23-7.26 9.97-12.02 13.87-1.83 0.5-3.64 1.05-5.45 1.62-2.92 0.81-5.97 0.8-8.96 0.49-2.59-1.34-5.37-2.21-8.12-3.13-0.53-0.3-1.59-0.89-2.13-1.19l-0.09-0.49c-3.1-1.69-6.08-3.65-8.24-6.5-0.58-1.81-0.99-3.67-1.35-5.53 0.47-3.55 0.06-7.28 1.48-10.65 1.95-4.71 4.16-9.73 8.74-12.44z"
      fill="#ffffff"
  />
  <path
      d="m731.53 210.71c8.11-1.49 17.17 0.74 22.88 6.9 3.59 3.71 5.07 9.32 3.66 14.3-1.48 5.54-6.23 9.59-11.33 11.8-9.73 4.05-22.31 2.05-29.15-6.33-4.06-4.86-4.42-12.36-0.86-17.58 3.38-4.94 8.97-8.08 14.8-9.09z"
      fill="#000000"
  />
  <path
      d="m797.6 210.69c8.3-1.5 17.62 0.92 23.26 7.43 3.71 4.14 4.79 10.4 2.62 15.53-7.03 14.92-30.59 16.07-40.26 3.24-3.73-4.85-3.92-12.06-0.47-17.11 3.38-4.95 9-8.08 14.85-9.09z"
      fill="#000000"
  />
  <path
      d="m746.38 508.24c0.33-0.41 0.98-1.24 1.31-1.65 0.69 14.45 0.13 28.94 0.31 43.4v56.01h-91c0.22-16.04-0.45-32.12 0.35-48.14 0.69-0.12 2.06-0.36 2.75-0.48 1.63-0.76 3.29-1.48 4.96-2.17 1.96-0.82 3.92-1.64 5.88-2.48 3.66-1.65 7.31-3.35 10.98-4.98 1.34-0.66 2.68-1.32 4.03-1.96 0.48-0.27 1.44-0.8 1.92-1.07 2.68-1.32 5.35-2.66 8.01-4.02 0.51-0.25 1.54-0.74 2.05-0.99 16.97-9.16 33.27-19.56 48.45-31.47z"
      fill="#ffb79b"
  />
  <path
      d="m203.34 508.86c0.83 0.96 1.69 1.92 2.58 2.86 1.68 1.15 3.33 2.36 4.97 3.58 9.89 7.32 20.38 13.79 31.02 19.95 2.71 1.52 5.43 3.03 8.17 4.51 0.95 0.48 1.91 0.96 2.86 1.44 1.33 0.67 2.66 1.35 4 2.04 1.05 0.48 2.1 0.99 3.17 1.49 0.92 0.52 1.84 1.05 2.77 1.59 0.5 0.24 1.51 0.72 2.02 0.96 0.51 0.23 1.52 0.68 2.03 0.91 3.38 1.5 6.73 3.06 10.1 4.59 2.33 0.99 4.67 1.98 7.03 2.94 1.67 0.7 3.34 1.4 5.02 2.09 1.93 0.81 3.87 1.59 5.82 2.4 2.4 0.83 4.78 1.73 7.19 2.56 1.27 0.54 2.53 1.07 3.79 1.64 0.72 0.08 2.15 0.23 2.87 0.31 0.58 31.41 0.08 62.85 0.25 94.28h-106v-135.93c0.02-4.74-0.18-9.49 0.34-14.21z"
      fill="#ffb79b"
  />
  <path
      d="m645.9 562.77c1.34-0.51 2.68-1.03 4.04-1.53 0.14 32.59 0.02 65.17 0.06 97.76h-106v-71.65c24.97-3.43 49.82-8.2 73.93-15.59 0.53-0.11 1.59-0.34 2.12-0.45 2.61-0.88 5.25-1.66 7.89-2.46 1-0.33 2.01-0.66 3.02-0.99 1.01-0.31 2.02-0.62 3.04-0.93 0.99-0.4 1.98-0.81 2.98-1.21 0.52-0.1 1.57-0.31 2.09-0.41 1-0.38 2.01-0.75 3.03-1.09 1.26-0.5 2.53-0.97 3.8-1.45z"
      fill="#ffb79b"
  />
  <path
      d="m316 606c0.15-12.92-0.31-25.85 0.25-38.76 1.24 0.59 2.48 1.18 3.74 1.76 2.68 0.66 5.32 1.45 7.95 2.32 0.52 0.12 1.57 0.36 2.09 0.48 2.32 0.77 4.66 1.48 7.01 2.15 22.96 6.23 46.34 10.85 69.96 13.73v18.32h-91z"
      fill="#ffb79b"
  />
  <metadata
    >
    <rdf:RDF
      >
      <cc:Work
        >
        <dc:format
          >image/svg+xml</dc:format
        >
        <dc:type
            rdf:resource="http://purl.org/dc/dcmitype/StillImage"
        />
        <cc:license
            rdf:resource="http://creativecommons.org/licenses/publicdomain/"
        />
        <dc:publisher
          >
          <cc:Agent
              rdf:about="http://openclipart.org/"
            >
            <dc:title
              >Openclipart</dc:title
            >
          </cc:Agent
          >
        </dc:publisher
        >
        <dc:title
          >Piggie</dc:title
        >
        <dc:date
          >2010-10-31T02:33:01</dc:date
        >
        <dc:description
          >Orange Pig with big eyes. This pig was picked as a mascot in 2010 for Band Cochon, (www.BandCochon.Re), a group based in Réunion, Reunion.\n\nhttps://www.facebook.com/band.cochon\n\nAlso see icons of the mascot: \nhttp://www.rw-designer.com/icon-set/bandcochon</dc:description
        >
        <dc:source
          >https://openclipart.org/detail/93265/piggie-by-candyadams</dc:source
        >
        <dc:creator
          >
          <cc:Agent
            >
            <dc:title
              >CandyAdams</dc:title
            >
          </cc:Agent
          >
        </dc:creator
        >
        <dc:subject
          >
          <rdf:Bag
            >
            <rdf:li
              >animal</rdf:li
            >
            <rdf:li
              >band cochon</rdf:li
            >
            <rdf:li
              >farm</rdf:li
            >
            <rdf:li
              >free</rdf:li
            >
            <rdf:li
              >google eyes</rdf:li
            >
            <rdf:li
              >pig</rdf:li
            >
            <rdf:li
              >piggie</rdf:li
            >
            <rdf:li
              >piggy</rdf:li
            >
          </rdf:Bag
          >
        </dc:subject
        >
      </cc:Work
      >
      <cc:License
          rdf:about="http://creativecommons.org/licenses/publicdomain/"
        >
        <cc:permits
            rdf:resource="http://creativecommons.org/ns#Reproduction"
        />
        <cc:permits
            rdf:resource="http://creativecommons.org/ns#Distribution"
        />
        <cc:permits
            rdf:resource="http://creativecommons.org/ns#DerivativeWorks"
        />
      </cc:License
      >
    </rdf:RDF
    >
  </metadata
  > 
</svg>
